HIERARCHY
ROOT Hips
{
 OFFSET 0.000000 0.000000 0.000000
 CHANNELS 6 Xposition Yposition Zposition Yrotation Xrotation Zrotation
 JOINT Chest
 {
  OFFSET 0.000000 9.585900 0.002600
  CHANNELS 3 Yrotation Xrotation Zrotation
  JOINT Chest2
  {
   OFFSET 0.000000 9.601200 -0.005300
   CHANNELS 3 Yrotation Xrotation Zrotation
   JOINT Chest3
   {
    OFFSET 0.000000 9.561800 0.000000
    CHANNELS 3 Yrotation Xrotation Zrotation
    JOINT Chest4
    {
     OFFSET 0.000000 9.552100 0.000000
     CHANNELS 3 Yrotation Xrotation Zrotation
     JOINT Neck
     {
      OFFSET 0.000000 14.453000 0.000000
      CHANNELS 3 Yrotation Xrotation Zrotation
      JOINT Head
      {
       OFFSET 0.000000 8.936500 -0.011300
       CHANNELS 3 Yrotation Xrotation Zrotation
       End Site
       {
        OFFSET 0.000000 17.073600 -0.006000
       }
      }
     }
     JOINT RightCollar
     {
      OFFSET -2.921100 9.558500 0.000000
      CHANNELS 3 Yrotation Xrotation Zrotation
      JOINT RightShoulder
      {
       OFFSET -13.519700 0.000000 0.000000
       CHANNELS 3 Yrotation Xrotation Zrotation
       JOINT RightElbow
       {
        OFFSET 0.000000 -29.696600 0.000000
        CHANNELS 3 Yrotation Xrotation Zrotation
        JOINT RightWrist
        {
         OFFSET 0.000000 -24.004700 0.000000
         CHANNELS 3 Yrotation Xrotation Zrotation
         End Site
         {
          OFFSET 0.000000 -17.728500 0.000000
         }
        }
       }
      }
     }
     JOINT LeftCollar
     {
      OFFSET 2.921100 9.558500 0.000000
      CHANNELS 3 Yrotation Xrotation Zrotation
      JOINT LeftShoulder
      {
       OFFSET 13.519700 0.000000 0.000000
       CHANNELS 3 Yrotation Xrotation Zrotation
       JOINT LeftElbow
       {
        OFFSET 0.000000 -29.696600 0.000000
        CHANNELS 3 Yrotation Xrotation Zrotation
        JOINT LeftWrist
        {
         OFFSET 0.000000 -24.004700 0.000000
         CHANNELS 3 Yrotation Xrotation Zrotation
         End Site
         {
          OFFSET 0.000000 -17.728500 0.000000
         }
        }
       }
      }
     }
    }
   }
  }
 }
 JOINT RightHip
 {
  OFFSET -7.771700 -0.012900 -0.001300
  CHANNELS 3 Yrotation Xrotation Zrotation
  JOINT RightKnee
  {
   OFFSET 0.000000 -40.869800 0.001200
   CHANNELS 3 Yrotation Xrotation Zrotation
   JOINT RightAnkle
   {
    OFFSET 0.000000 -39.717900 0.002100
    CHANNELS 3 Yrotation Xrotation Zrotation
    JOINT RightToe
    {
     OFFSET 0.000000 -4.965400 11.033500
     CHANNELS 3 Yrotation Xrotation Zrotation
     End Site
     {
      OFFSET 0.000000 -1.423100 5.872300
     }
    }
   }
  }
 }
 JOINT LeftHip
 {
  OFFSET 7.771700 -0.012900 -0.001300
  CHANNELS 3 Yrotation Xrotation Zrotation
  JOINT LeftKnee
  {
   OFFSET 0.000000 -40.869800 0.001200
   CHANNELS 3 Yrotation Xrotation Zrotation
   JOINT LeftAnkle
   {
    OFFSET 0.000000 -39.717900 0.002100
    CHANNELS 3 Yrotation Xrotation Zrotation
    JOINT LeftToe
    {
     OFFSET 0.000000 -4.965400 11.033500
     CHANNELS 3 Yrotation Xrotation Zrotation
     End Site
     {
      OFFSET 0.000000 -1.423100 5.872300
     }
    }
   }
  }
 }
}
MOTION
Frames: 5
Frame Time: 0.008333
-24.278664 55.125541 -36.694783 -179.780408 -16.994877 -1.600246 0.659464 16.148127 0.686420 0.059054 1.599360 0.076733 0.105461 2.684760 0.128716 0.634103 14.313286 0.762183 0.048216 11.171151 3.521689 -0.778074 -13.932839 3.742366 1.850988 0.549249 1.969396 3.758557 -6.154436 -8.803985 -81.947372 -54.521370 116.713383 -17.341385 -5.966511 -7.398094 -6.439782 -1.395446 2.532728 3.378645 -9.690726 6.058553 61.523854 -49.680957 -102.593496 9.428940 -9.916930 8.914395 0.850772 -58.210219 11.714149 -106.369366 88.022734 -111.184047 -9.581112 -22.356664 13.918921 0.007538 -0.079824 0.037043 9.741728 -54.732501 -5.638523 114.682178 77.484094 112.535555 -6.749864 -23.915947 1.015311 0.075199 0.218106 0.033199
-24.278774 55.125740 -36.693929 -179.777982 -16.997766 -1.597320 0.658805 16.153706 0.683285 0.060276 1.600433 0.077398 0.108731 2.695513 0.127499 0.636632 14.320513 0.762744 0.047419 11.161947 3.524356 -0.764774 -13.916272 3.741810 1.864159 0.531529 1.955990 3.750909 -6.181631 -8.828910 -81.944890 -54.493235 116.691161 -17.328025 -5.969797 -7.384723 -6.443562 -1.416780 2.544586 3.368131 -9.694290 6.057069 61.547886 -49.687110 -102.637203 9.423454 -9.935604 8.899649 0.847352 -58.203914 11.708719 -106.286878 88.028120 -111.116238 -9.524850 -22.352004 13.908985 0.039965 -0.075577 0.033266 9.742780 -54.728539 -5.638806 114.672757 77.489792 112.522566 -6.749848 -23.915380 1.017636 0.074599 0.221526 0.033888
-24.278831 55.125926 -36.692909 -179.779864 -17.000189 -1.593278 0.661168 16.158969 0.679313 0.066516 1.613353 0.076854 0.105848 2.690602 0.128507 0.646344 14.347857 0.756970 0.059787 11.176111 3.535662 -0.754205 -13.901523 3.751066 1.870557 0.496234 1.951770 3.732406 -6.190075 -8.821379 -81.954893 -54.499762 116.697572 -17.310659 -5.977528 -7.363427 -6.455690 -1.453595 2.560749 3.363026 -9.699692 6.060629 61.604080 -49.704238 -102.745021 9.435544 -9.927901 8.954816 0.850859 -58.199341 11.702163 -106.220015 88.036581 -111.063523 -9.477000 -22.343729 13.902966 -0.010572 -0.077953 0.022967 9.747719 -54.726042 -5.638123 114.680601 77.495331 112.523959 -6.747112 -23.915402 1.023302 0.070726 0.222427 0.032292
-24.278036 55.126312 -36.692390 -179.782630 -17.005782 -1.593946 0.673745 16.175582 0.685024 0.062761 1.609118 0.075958 0.106439 2.693491 0.128270 0.648960 14.354712 0.755521 0.063894 11.186469 3.541986 -0.751299 -13.890747 3.756783 1.877039 0.486593 1.938364 3.726841 -6.209207 -8.832209 -81.987220 -54.495663 116.721560 -17.303915 -5.985151 -7.344244 -6.455691 -1.472848 2.567120 3.358371 -9.734995 6.089883 61.615113 -49.677471 -102.802871 9.441123 -9.928042 8.994503 0.848849 -58.196742 11.721752 -105.921023 88.015034 -110.757107 -9.544900 -22.306477 13.902998 0.009281 -0.082909 0.032121 9.745023 -54.721184 -5.629805 114.667765 77.490641 112.514741 -6.761023 -23.916504 1.017953 0.078472 0.224157 0.035409
-24.278215 55.126791 -36.692229 -179.783701 -17.013172 -1.589392 0.679485 16.186315 0.681799 0.060954 1.610361 0.076657 0.109910 2.697446 0.127023 0.654222 14.362231 0.753960 0.059620 11.184267 3.549983 -0.746451 -13.860965 3.766442 1.879547 0.474989 1.928553 3.728735 -6.220042 -8.854458 -82.041022 -54.487126 116.770601 -17.300638 -5.995687 -7.330842 -6.461300 -1.493312 2.579623 3.353597 -9.741156 6.093370 61.644025 -49.677235 -102.866190 9.438842 -9.941753 8.995964 0.845790 -58.186390 11.728281 -105.687031 88.009030 -110.527271 -9.573311 -22.290302 13.901588 0.008281 -0.079000 0.033098 9.749323 -54.713435 -5.632930 114.656411 77.489207 112.503901 -6.763062 -23.912978 1.012528 0.077977 0.222537 0.038761
